<?xml version="1.0" standalone="no"?>
<!DOCTYPE svg PUBLIC "-//W3C//DTD SVG 20010904//EN"
 "http://www.w3.org/TR/2001/REC-SVG-20010904/DTD/svg10.dtd">
<svg version="1.0" xmlns="http://www.w3.org/2000/svg"
 width="260.000000pt" height="260.000000pt" viewBox="0 0 260.000000 260.000000"
 preserveAspectRatio="xMidYMid meet">
<metadata>
Created by potrace 1.14, written by Peter Selinger 2001-2017
</metadata>
<g transform="translate(0.000000,260.000000) scale(0.100000,-0.100000)"
fill="#000000" stroke="none">
<path d="M1251 2482 c0 -7 -5 -10 -11 -7 -5 3 -10 1 -10 -6 0 -7 -3 -10 -6 -6
-3 3 -14 -2 -23 -11 -10 -9 -27 -23 -37 -30 -14 -9 -21 -27 -23 -55 -3 -49 -6
-54 -25 -38 -10 9 -16 9 -21 1 -5 -8 -11 -8 -21 1 -11 9 -14 9 -14 0 0 -7 -4
-10 -9 -7 -5 3 -29 -12 -54 -34 -25 -22 -47 -35 -49 -29 -5 16 -118 22 -118 7
0 -6 -3 -9 -6 -6 -3 3 -16 -4 -28 -16 -51 -46 -71 -63 -78 -65 -11 -2 -40 -31
-69 -71 -26 -35 -31 -82 -14 -123 4 -10 3 -17 -2 -15 -5 2 -31 -14 -58 -34
-27 -21 -45 -38 -42 -38 3 0 -9 -16 -29 -35 -19 -19 -30 -35 -24 -35 16 0 12
-42 -7 -62 -9 -10 -18 -29 -20 -40 -2 -12 -9 -29 -16 -37 -29 -35 -51 -101
-34 -101 8 0 8 -3 -2 -9 -8 -5 -9 -11 -3 -15 6 -3 9 -14 7 -24 -1 -9 3 -23 9
-31 9 -12 8 -13 -3 -6 -11 6 -12 5 -5 -6 9 -15 10 -19 20 -94 3 -27 10 -55 15
-61 5 -6 4 -15 -2 -21 -8 -8 -8 -13 0 -17 6 -4 11 -21 11 -37 0 -21 4 -28 12
-23 10 5 10 4 2 -5 -9 -9 -8 -24 2 -59 8 -26 14 -48 14 -49 0 -2 0 -4 1 -5 3
-12 11 -78 12 -95 1 -13 5 -23 10 -23 5 0 8 -10 7 -22 -1 -13 -1 -25 0 -28 4
-11 22 -106 25 -135 1 -11 5 -27 8 -35 3 -8 8 -28 11 -45 4 -16 9 -41 12 -55
3 -14 7 -32 9 -40 2 -8 4 -15 5 -15 1 0 3 -16 4 -37 1 -20 9 -44 17 -54 9 -11
9 -15 1 -10 -9 5 -10 2 -3 -16 11 -26 26 -97 24 -115 0 -7 2 -13 6 -13 8 0 10
-9 13 -55 1 -14 5 -25 9 -25 4 0 6 -11 4 -25 -1 -14 1 -25 5 -25 4 0 10 -14
14 -31 6 -34 24 -55 46 -56 8 -1 43 -2 78 -3 34 -2 65 -7 68 -12 3 -5 12 -4
20 3 11 9 14 8 14 -2 0 -12 2 -12 9 0 5 7 11 9 14 4 3 -5 33 -9 66 -9 34 1 61
-1 61 -4 0 -8 44 -5 57 3 5 4 13 3 17 -1 8 -7 46 -10 184 -13 45 -1 85 -6 88
-11 3 -4 10 -5 16 -2 16 10 69 13 63 4 -3 -5 7 -5 22 -1 16 4 43 4 61 0 17 -4
32 -3 32 2 0 5 10 5 23 0 18 -7 27 -4 43 15 10 12 23 23 28 24 5 0 35 18 66
39 32 22 61 37 64 34 3 -4 6 1 6 10 0 10 7 17 15 17 8 0 15 5 15 11 0 6 6 9
14 6 9 -4 17 4 22 21 9 34 9 34 18 54 4 9 5 21 2 27 -3 5 0 16 8 24 8 8 12 17
9 20 -3 4 -2 14 2 24 4 10 9 27 10 38 2 11 6 34 10 50 4 17 8 40 8 53 1 12 5
22 9 22 4 0 7 3 7 8 -1 4 2 27 7 52 4 25 7 48 6 53 -1 4 2 7 6 7 4 0 7 12 7
28 -1 15 2 34 6 43 4 8 10 29 13 45 2 16 5 31 7 34 1 3 3 10 4 15 3 25 20 106
30 147 3 13 9 46 12 73 3 28 9 51 14 53 4 2 5 15 3 28 -3 14 -1 23 4 20 5 -3
9 7 9 22 1 61 3 73 14 66 8 -4 8 0 0 15 -7 12 -8 21 -2 21 5 0 8 8 6 18 -1 9
1 26 5 37 6 17 14 71 25 175 1 14 5 36 9 50 6 19 5 21 -3 10 -7 -9 -11 -10
-11 -3 0 6 4 14 8 17 11 6 9 36 -3 55 -5 10 -4 12 3 7 7 -4 12 -3 12 3 0 5 -6
12 -12 14 -10 4 -9 6 1 6 11 1 11 4 0 18 -10 12 -10 15 -1 9 10 -6 10 -2 0 18
-6 14 -17 26 -25 26 -7 0 -18 9 -25 20 -7 11 -23 20 -35 20 -19 0 -23 5 -23
34 0 19 -5 38 -11 41 -5 4 -8 12 -6 18 2 6 -9 24 -25 40 -15 17 -28 34 -28 39
0 5 -4 6 -10 3 -5 -3 -10 1 -10 9 0 8 -15 30 -34 48 -18 18 -41 48 -50 66 -22
44 -47 72 -64 72 -7 0 -15 7 -18 15 -4 8 -15 15 -26 15 -10 0 -16 5 -13 10 4
6 3 10 -2 9 -23 -4 -31 5 -42 44 -15 52 -39 65 -114 60 -39 -2 -60 1 -70 11
-8 8 -17 12 -21 9 -3 -4 -6 -1 -6 5 0 6 -15 10 -35 9 -19 -1 -35 -5 -35 -9 0
-4 -7 -5 -15 -2 -8 4 -15 1 -15 -6 0 -6 -4 -9 -9 -5 -5 3 -12 1 -16 -5 -3 -5
-15 -10 -25 -10 -15 0 -19 6 -17 27 2 21 -5 32 -30 48 -17 11 -34 27 -36 35
-3 10 -5 11 -6 2z"/>
</g>
</svg>
